# Blender v2.79 (sub 0) OBJ File: ''
# www.blender.org
mtllib Gear.mtl
o Gear_Цилиндр
v -0.001595 -0.012850 -0.219474
v -0.001595 0.104055 -0.219474
v 0.146058 -0.012850 -0.158314
v 0.146058 0.104055 -0.158314
v 0.207218 -0.012850 -0.010661
v 0.207218 0.104055 -0.010661
v 0.146058 -0.012850 0.136992
v 0.146058 0.104055 0.136992
v -0.001595 -0.012850 0.198151
v -0.001595 0.104055 0.198151
v -0.149248 -0.012850 0.136992
v -0.149248 0.104055 0.136992
v -0.210408 -0.012850 -0.010661
v -0.210408 0.104055 -0.010661
v -0.149248 -0.012850 -0.158314
v -0.149248 0.104055 -0.158314
v -0.001595 0.151686 -0.115067
v 0.072231 0.151686 -0.084488
v 0.102811 0.151686 -0.010661
v 0.072231 0.151686 0.063165
v -0.001595 0.151686 0.093745
v -0.075421 0.151686 0.063165
v -0.106001 0.151686 -0.010661
v -0.075421 0.151686 -0.084488
v -0.001595 -0.060481 -0.115067
v 0.072231 -0.060481 -0.084488
v 0.102811 -0.060481 -0.010661
v 0.072231 -0.060481 0.063165
v -0.001595 -0.060481 0.093745
v -0.075421 -0.060481 0.063165
v -0.106001 -0.060481 -0.010661
v -0.075421 -0.060481 -0.084488
v -0.041550 0.104055 0.294610
v -0.041550 -0.012850 0.294610
v -0.189202 -0.012850 0.233450
v -0.189202 0.104055 0.233450
v 0.303676 0.104055 0.029293
v 0.303676 -0.012850 0.029293
v 0.242517 -0.012850 0.176946
v 0.242517 0.104055 0.176946
v 0.038360 -0.012850 -0.315933
v 0.186012 -0.012850 -0.254773
v 0.186012 0.104055 -0.254773
v 0.038360 0.104055 -0.315933
v -0.306866 0.104055 -0.050616
v -0.306866 -0.012850 -0.050616
v -0.245707 -0.012850 -0.198268
v -0.245707 0.104055 -0.198268
vn 0.0000 1.0000 0.0000
vn 0.9239 0.0000 -0.3827
vn 0.3827 0.0000 0.9239
vn 0.9239 0.0000 0.3827
vn -0.9239 0.0000 0.3827
vn -0.4091 0.8966 -0.1694
vn 0.3827 0.0000 -0.9239
vn -0.3827 0.0000 -0.9239
vn 0.1694 0.8966 0.4091
vn 0.4091 0.8966 -0.1694
vn -0.1694 0.8966 0.4091
vn -0.1694 0.8966 -0.4091
vn 0.1694 0.8966 -0.4091
vn 0.4091 0.8966 0.1694
vn -0.4091 0.8966 0.1694
vn 0.4091 -0.8966 -0.1694
vn -0.1694 -0.8966 0.4091
vn -0.1694 -0.8966 -0.4091
vn 0.1694 -0.8966 -0.4091
vn 0.4091 -0.8966 0.1694
vn -0.4091 -0.8966 0.1694
vn 0.1694 -0.8966 0.4091
vn -0.4091 -0.8966 -0.1694
vn -0.3827 0.0000 0.9239
vn -0.9239 0.0000 -0.3827
vn 0.0000 -1.0000 0.0000
usemtl None
s off
f 2//1 4//1 43//1 44//1
f 3//2 4//2 6//2 5//2
f 6//1 8//1 40//1 37//1
f 7//3 8//3 10//3 9//3
f 9//4 10//4 33//4 34//4
f 11//5 12//5 14//5 13//5
f 16//6 14//6 23//6 24//6
f 16//7 15//7 47//7 48//7
f 15//8 16//8 2//8 1//8
f 10//9 8//9 20//9 21//9
f 6//10 4//10 18//10 19//10
f 12//11 10//11 21//11 22//11
f 2//12 16//12 24//12 17//12
f 4//13 2//13 17//13 18//13
f 8//14 6//14 19//14 20//14
f 14//15 12//15 22//15 23//15
f 3//16 5//16 27//16 26//16
f 9//17 11//17 30//17 29//17
f 15//18 1//18 25//18 32//18
f 1//19 3//19 26//19 25//19
f 5//20 7//20 28//20 27//20
f 11//21 13//21 31//21 30//21
f 7//22 9//22 29//22 28//22
f 13//23 15//23 32//23 31//23
f 18//24 17//24 25//24 26//24
f 17//3 24//3 32//3 25//3
f 24//4 23//4 31//4 32//4
f 23//2 22//2 30//2 31//2
f 22//7 21//7 29//7 30//7
f 21//8 20//8 28//8 29//8
f 20//25 19//25 27//25 28//25
f 19//5 18//5 26//5 27//5
f 34//24 33//24 36//24 35//24
f 12//25 11//25 35//25 36//25
f 11//26 9//26 34//26 35//26
f 10//1 12//1 36//1 33//1
f 38//4 37//4 40//4 39//4
f 5//7 6//7 37//7 38//7
f 8//24 7//24 39//24 40//24
f 7//26 5//26 38//26 39//26
f 41//7 44//7 43//7 42//7
f 1//25 2//25 44//25 41//25
f 3//26 1//26 41//26 42//26
f 4//4 3//4 42//4 43//4
f 46//25 45//25 48//25 47//25
f 15//26 13//26 46//26 47//26
f 14//1 16//1 48//1 45//1
f 13//24 14//24 45//24 46//24
